<mxfile host="Electron" modified="2024-03-23T17:42:17.079Z" agent="Mozilla/5.0 (Windows NT 10.0; Win64; x64) AppleWebKit/537.36 (KHTML, like Gecko) draw.io/24.0.4 Chrome/120.0.6099.109 Electron/28.1.0 Safari/537.36" etag="poc41a4ntjFM5D00VNb3" version="24.0.4" type="device">
  <diagram name="Page-1" id="JZyFMT-VHSWi0CG8pwOK">
    <mxGraphModel dx="1050" dy="629" grid="1" gridSize="10" guides="1" tooltips="1" connect="1" arrows="1" fold="1" page="1" pageScale="1" pageWidth="827" pageHeight="1169" math="0" shadow="0">
      <root>
        <mxCell id="0" />
        <mxCell id="1" parent="0" />
        <mxCell id="jMCXAbODcjZnHYOOHZwY-43" value="" style="rounded=0;whiteSpace=wrap;html=1;strokeWidth=1;fillColor=#FCFCFC;fontColor=#333333;strokeColor=#B3B3B3;fillStyle=auto;gradientColor=#E5EBF2;shadow=0;textShadow=0;glass=0;" parent="1" vertex="1">
          <mxGeometry x="329.5" y="613.5" width="150" height="204" as="geometry" />
        </mxCell>
        <mxCell id="yVfWyDV9i-Rg-60zBhBa-1" value="m1" style="ellipse;whiteSpace=wrap;html=1;aspect=fixed;fillColor=#ffe6cc;strokeColor=#d79b00;strokeWidth=2;" parent="1" vertex="1">
          <mxGeometry x="500" y="539.5" width="40" height="40" as="geometry" />
        </mxCell>
        <mxCell id="yVfWyDV9i-Rg-60zBhBa-6" style="edgeStyle=orthogonalEdgeStyle;rounded=0;orthogonalLoop=1;jettySize=auto;html=1;exitX=0;exitY=0.5;exitDx=0;exitDy=0;entryX=1;entryY=0.5;entryDx=0;entryDy=0;" parent="1" source="yVfWyDV9i-Rg-60zBhBa-2" target="yVfWyDV9i-Rg-60zBhBa-1" edge="1">
          <mxGeometry relative="1" as="geometry" />
        </mxCell>
        <mxCell id="yVfWyDV9i-Rg-60zBhBa-2" value="m2" style="ellipse;whiteSpace=wrap;html=1;aspect=fixed;fillColor=#ffe6cc;strokeColor=#d79b00;strokeWidth=2;" parent="1" vertex="1">
          <mxGeometry x="584" y="539.5" width="40" height="40" as="geometry" />
        </mxCell>
        <mxCell id="yVfWyDV9i-Rg-60zBhBa-8" style="edgeStyle=orthogonalEdgeStyle;rounded=0;orthogonalLoop=1;jettySize=auto;html=1;exitX=0;exitY=0.5;exitDx=0;exitDy=0;entryX=1;entryY=0.5;entryDx=0;entryDy=0;" parent="1" source="yVfWyDV9i-Rg-60zBhBa-3" target="yVfWyDV9i-Rg-60zBhBa-2" edge="1">
          <mxGeometry relative="1" as="geometry" />
        </mxCell>
        <mxCell id="yVfWyDV9i-Rg-60zBhBa-3" value="m3" style="ellipse;whiteSpace=wrap;html=1;aspect=fixed;fillColor=#ffe6cc;strokeColor=#d79b00;strokeWidth=2;" parent="1" vertex="1">
          <mxGeometry x="665" y="539.5" width="40" height="40" as="geometry" />
        </mxCell>
        <mxCell id="yVfWyDV9i-Rg-60zBhBa-7" style="edgeStyle=orthogonalEdgeStyle;rounded=0;orthogonalLoop=1;jettySize=auto;html=1;exitX=0;exitY=0.5;exitDx=0;exitDy=0;entryX=0.5;entryY=1;entryDx=0;entryDy=0;" parent="1" source="yVfWyDV9i-Rg-60zBhBa-4" target="yVfWyDV9i-Rg-60zBhBa-2" edge="1">
          <mxGeometry relative="1" as="geometry" />
        </mxCell>
        <mxCell id="yVfWyDV9i-Rg-60zBhBa-4" value="f1" style="ellipse;whiteSpace=wrap;html=1;aspect=fixed;fillColor=#dae8fc;strokeColor=#6c8ebf;strokeWidth=2;" parent="1" vertex="1">
          <mxGeometry x="625" y="619.5" width="40" height="40" as="geometry" />
        </mxCell>
        <mxCell id="yVfWyDV9i-Rg-60zBhBa-9" style="edgeStyle=orthogonalEdgeStyle;rounded=0;orthogonalLoop=1;jettySize=auto;html=1;exitX=0;exitY=0.5;exitDx=0;exitDy=0;entryX=1;entryY=0.5;entryDx=0;entryDy=0;" parent="1" source="yVfWyDV9i-Rg-60zBhBa-5" target="yVfWyDV9i-Rg-60zBhBa-4" edge="1">
          <mxGeometry relative="1" as="geometry" />
        </mxCell>
        <mxCell id="yVfWyDV9i-Rg-60zBhBa-5" value="f2" style="ellipse;whiteSpace=wrap;html=1;aspect=fixed;fillColor=#dae8fc;strokeColor=#6c8ebf;strokeWidth=2;" parent="1" vertex="1">
          <mxGeometry x="696" y="619.5" width="40" height="40" as="geometry" />
        </mxCell>
        <mxCell id="yVfWyDV9i-Rg-60zBhBa-13" style="edgeStyle=orthogonalEdgeStyle;rounded=0;orthogonalLoop=1;jettySize=auto;html=1;exitX=0.5;exitY=1;exitDx=0;exitDy=0;entryX=1;entryY=0.5;entryDx=0;entryDy=0;" parent="1" source="yVfWyDV9i-Rg-60zBhBa-10" target="yVfWyDV9i-Rg-60zBhBa-5" edge="1">
          <mxGeometry relative="1" as="geometry" />
        </mxCell>
        <mxCell id="yVfWyDV9i-Rg-60zBhBa-14" style="edgeStyle=orthogonalEdgeStyle;rounded=0;orthogonalLoop=1;jettySize=auto;html=1;exitX=0;exitY=0.5;exitDx=0;exitDy=0;entryX=1;entryY=0.5;entryDx=0;entryDy=0;" parent="1" source="yVfWyDV9i-Rg-60zBhBa-10" target="yVfWyDV9i-Rg-60zBhBa-3" edge="1">
          <mxGeometry relative="1" as="geometry" />
        </mxCell>
        <mxCell id="yVfWyDV9i-Rg-60zBhBa-10" value="merge" style="ellipse;whiteSpace=wrap;html=1;aspect=fixed;strokeColor=#d79b00;fillColor=#ffe6cc;strokeWidth=2;" parent="1" vertex="1">
          <mxGeometry x="749" y="539.5" width="40" height="40" as="geometry" />
        </mxCell>
        <mxCell id="yVfWyDV9i-Rg-60zBhBa-22" style="edgeStyle=orthogonalEdgeStyle;rounded=0;orthogonalLoop=1;jettySize=auto;html=1;exitX=1;exitY=0.5;exitDx=0;exitDy=0;entryX=0.5;entryY=0;entryDx=0;entryDy=0;curved=1;startArrow=classic;startFill=1;" parent="1" source="yVfWyDV9i-Rg-60zBhBa-16" target="yVfWyDV9i-Rg-60zBhBa-18" edge="1">
          <mxGeometry relative="1" as="geometry" />
        </mxCell>
        <mxCell id="yVfWyDV9i-Rg-60zBhBa-23" value="diff" style="edgeLabel;html=1;align=center;verticalAlign=middle;resizable=0;points=[];labelBackgroundColor=none;" parent="yVfWyDV9i-Rg-60zBhBa-22" vertex="1" connectable="0">
          <mxGeometry x="-0.064" y="-1" relative="1" as="geometry">
            <mxPoint x="11" y="-3" as="offset" />
          </mxGeometry>
        </mxCell>
        <mxCell id="yVfWyDV9i-Rg-60zBhBa-36" style="edgeStyle=orthogonalEdgeStyle;curved=1;rounded=0;orthogonalLoop=1;jettySize=auto;html=1;exitX=0;exitY=0.5;exitDx=0;exitDy=0;entryX=0.5;entryY=0;entryDx=0;entryDy=0;startArrow=classic;startFill=1;" parent="1" source="yVfWyDV9i-Rg-60zBhBa-16" target="yVfWyDV9i-Rg-60zBhBa-17" edge="1">
          <mxGeometry relative="1" as="geometry" />
        </mxCell>
        <mxCell id="yVfWyDV9i-Rg-60zBhBa-38" value="diff" style="edgeLabel;html=1;align=center;verticalAlign=middle;resizable=0;points=[];labelBackgroundColor=none;" parent="yVfWyDV9i-Rg-60zBhBa-36" vertex="1" connectable="0">
          <mxGeometry x="0.216" y="2" relative="1" as="geometry">
            <mxPoint x="-12" y="-10" as="offset" />
          </mxGeometry>
        </mxCell>
        <mxCell id="yVfWyDV9i-Rg-60zBhBa-16" value="m2&lt;div&gt;base&lt;/div&gt;" style="ellipse;whiteSpace=wrap;html=1;aspect=fixed;fillColor=#ffe6cc;strokeColor=#d79b00;strokeWidth=2;" parent="1" vertex="1">
          <mxGeometry x="384.5" y="622" width="40" height="40" as="geometry" />
        </mxCell>
        <mxCell id="yVfWyDV9i-Rg-60zBhBa-40" style="edgeStyle=orthogonalEdgeStyle;curved=1;rounded=0;orthogonalLoop=1;jettySize=auto;html=1;exitX=1;exitY=0.5;exitDx=0;exitDy=0;entryX=0;entryY=0.5;entryDx=0;entryDy=0;startArrow=classic;startFill=1;" parent="1" source="yVfWyDV9i-Rg-60zBhBa-17" target="yVfWyDV9i-Rg-60zBhBa-18" edge="1">
          <mxGeometry relative="1" as="geometry" />
        </mxCell>
        <mxCell id="yVfWyDV9i-Rg-60zBhBa-17" value="m3" style="ellipse;whiteSpace=wrap;html=1;aspect=fixed;fillColor=#ffe6cc;strokeColor=#d79b00;strokeWidth=2;" parent="1" vertex="1">
          <mxGeometry x="344.5" y="672" width="40" height="40" as="geometry" />
        </mxCell>
        <mxCell id="yVfWyDV9i-Rg-60zBhBa-18" value="f2" style="ellipse;whiteSpace=wrap;html=1;aspect=fixed;fillColor=#dae8fc;strokeColor=#6c8ebf;strokeWidth=2;" parent="1" vertex="1">
          <mxGeometry x="424.5" y="672" width="40" height="40" as="geometry" />
        </mxCell>
        <mxCell id="ZeTDhqO3Pv79P5UGSq5c-22" value="m1" style="ellipse;whiteSpace=wrap;html=1;aspect=fixed;fillColor=#ffe6cc;strokeColor=#d79b00;strokeWidth=2;" parent="1" vertex="1">
          <mxGeometry x="40" y="670.25" width="40" height="40" as="geometry" />
        </mxCell>
        <mxCell id="ZeTDhqO3Pv79P5UGSq5c-23" style="edgeStyle=orthogonalEdgeStyle;rounded=0;orthogonalLoop=1;jettySize=auto;html=1;exitX=0;exitY=0.5;exitDx=0;exitDy=0;entryX=1;entryY=0.5;entryDx=0;entryDy=0;" parent="1" source="ZeTDhqO3Pv79P5UGSq5c-24" target="ZeTDhqO3Pv79P5UGSq5c-22" edge="1">
          <mxGeometry relative="1" as="geometry" />
        </mxCell>
        <mxCell id="ZeTDhqO3Pv79P5UGSq5c-24" value="m2" style="ellipse;whiteSpace=wrap;html=1;aspect=fixed;fillColor=#ffe6cc;strokeColor=#d79b00;strokeWidth=2;" parent="1" vertex="1">
          <mxGeometry x="130" y="670.25" width="40" height="40" as="geometry" />
        </mxCell>
        <mxCell id="ZeTDhqO3Pv79P5UGSq5c-25" style="edgeStyle=orthogonalEdgeStyle;rounded=0;orthogonalLoop=1;jettySize=auto;html=1;exitX=0;exitY=0.5;exitDx=0;exitDy=0;entryX=1;entryY=0.5;entryDx=0;entryDy=0;" parent="1" source="ZeTDhqO3Pv79P5UGSq5c-26" target="ZeTDhqO3Pv79P5UGSq5c-24" edge="1">
          <mxGeometry relative="1" as="geometry" />
        </mxCell>
        <mxCell id="ZeTDhqO3Pv79P5UGSq5c-26" value="m3" style="ellipse;whiteSpace=wrap;html=1;aspect=fixed;fillColor=#ffe6cc;strokeColor=#d79b00;strokeWidth=2;" parent="1" vertex="1">
          <mxGeometry x="220" y="670.25" width="40" height="40" as="geometry" />
        </mxCell>
        <mxCell id="ZeTDhqO3Pv79P5UGSq5c-27" style="edgeStyle=orthogonalEdgeStyle;rounded=0;orthogonalLoop=1;jettySize=auto;html=1;exitX=0;exitY=0.5;exitDx=0;exitDy=0;entryX=0.5;entryY=1;entryDx=0;entryDy=0;" parent="1" source="ZeTDhqO3Pv79P5UGSq5c-28" target="ZeTDhqO3Pv79P5UGSq5c-24" edge="1">
          <mxGeometry relative="1" as="geometry" />
        </mxCell>
        <mxCell id="ZeTDhqO3Pv79P5UGSq5c-28" value="f1" style="ellipse;whiteSpace=wrap;html=1;aspect=fixed;fillColor=#dae8fc;strokeColor=#6c8ebf;strokeWidth=2;" parent="1" vertex="1">
          <mxGeometry x="170" y="750.25" width="40" height="40" as="geometry" />
        </mxCell>
        <mxCell id="ZeTDhqO3Pv79P5UGSq5c-29" style="edgeStyle=orthogonalEdgeStyle;rounded=0;orthogonalLoop=1;jettySize=auto;html=1;exitX=0;exitY=0.5;exitDx=0;exitDy=0;entryX=1;entryY=0.5;entryDx=0;entryDy=0;" parent="1" source="ZeTDhqO3Pv79P5UGSq5c-30" target="ZeTDhqO3Pv79P5UGSq5c-28" edge="1">
          <mxGeometry relative="1" as="geometry" />
        </mxCell>
        <mxCell id="ZeTDhqO3Pv79P5UGSq5c-30" value="f2" style="ellipse;whiteSpace=wrap;html=1;aspect=fixed;fillColor=#dae8fc;strokeColor=#6c8ebf;strokeWidth=2;" parent="1" vertex="1">
          <mxGeometry x="239.5" y="750.25" width="40" height="40" as="geometry" />
        </mxCell>
        <mxCell id="ZeTDhqO3Pv79P5UGSq5c-31" value="main" style="shape=offPageConnector;whiteSpace=wrap;html=1;rotation=0;size=0.23728813559322035;labelPosition=center;verticalLabelPosition=middle;align=center;verticalAlign=middle;textDirection=ltr;horizontal=0;strokeWidth=2;fontStyle=1;fillColor=#ffe6cc;strokeColor=#d79b00;spacingBottom=2;" parent="1" vertex="1">
          <mxGeometry x="225" y="621.25" width="30" height="49" as="geometry" />
        </mxCell>
        <mxCell id="ZeTDhqO3Pv79P5UGSq5c-56" value="merge" style="ellipse;whiteSpace=wrap;html=1;aspect=fixed;fillColor=#ffe6cc;strokeColor=#d79b00;strokeWidth=2;" parent="1" vertex="1">
          <mxGeometry x="384.5" y="771" width="40" height="40" as="geometry" />
        </mxCell>
        <mxCell id="ZeTDhqO3Pv79P5UGSq5c-61" value="" style="html=1;shadow=0;dashed=0;align=center;verticalAlign=middle;shape=mxgraph.arrows2.arrow;dy=0.4;dx=19.6;direction=south;notch=0;fillColor=#d5e8d4;strokeColor=#82b366;" parent="1" vertex="1">
          <mxGeometry x="379.5" y="737" width="50" height="30" as="geometry" />
        </mxCell>
        <mxCell id="3g_OFwCCYuVG5x8YzF48-2" value="HEAD" style="shape=display;whiteSpace=wrap;html=1;fillColor=#e51400;fontColor=#ffffff;strokeColor=#B20000;fontStyle=1;spacingLeft=4;rotation=-90;" parent="1" vertex="1">
          <mxGeometry x="215.5" y="580.75" width="49" height="30" as="geometry" />
        </mxCell>
        <mxCell id="3g_OFwCCYuVG5x8YzF48-3" value="if conflict&lt;div&gt;prompts to solve&lt;/div&gt;" style="text;html=1;align=center;verticalAlign=middle;resizable=0;points=[];autosize=1;strokeColor=none;fillColor=none;" parent="1" vertex="1">
          <mxGeometry x="348.5" y="699" width="110" height="40" as="geometry" />
        </mxCell>
        <mxCell id="jMCXAbODcjZnHYOOHZwY-4" value="" style="shape=flexArrow;endArrow=classic;html=1;rounded=0;endWidth=31;endSize=15.53;width=30;fillColor=#d5e8d4;strokeColor=#82b366;strokeWidth=2;" parent="1" edge="1">
          <mxGeometry width="50" height="50" relative="1" as="geometry">
            <mxPoint x="290" y="560" as="sourcePoint" />
            <mxPoint x="480" y="560" as="targetPoint" />
          </mxGeometry>
        </mxCell>
        <mxCell id="jMCXAbODcjZnHYOOHZwY-7" value="git merge feature" style="edgeLabel;html=1;align=center;verticalAlign=middle;resizable=0;points=[];fontSize=16;labelBackgroundColor=none;" parent="jMCXAbODcjZnHYOOHZwY-4" vertex="1" connectable="0">
          <mxGeometry x="0.5225" y="2" relative="1" as="geometry">
            <mxPoint x="-59" as="offset" />
          </mxGeometry>
        </mxCell>
        <mxCell id="jMCXAbODcjZnHYOOHZwY-8" value="main" style="shape=offPageConnector;whiteSpace=wrap;html=1;rotation=0;size=0.23728813559322035;labelPosition=center;verticalLabelPosition=middle;align=center;verticalAlign=middle;textDirection=ltr;horizontal=0;strokeWidth=2;fontStyle=1;fillColor=#ffe6cc;strokeColor=#d79b00;spacingBottom=2;" parent="1" vertex="1">
          <mxGeometry x="754" y="490.5" width="30" height="49" as="geometry" />
        </mxCell>
        <mxCell id="jMCXAbODcjZnHYOOHZwY-9" value="HEAD" style="shape=display;whiteSpace=wrap;html=1;fillColor=#e51400;fontColor=#ffffff;strokeColor=#B20000;fontStyle=1;spacingLeft=4;rotation=-90;" parent="1" vertex="1">
          <mxGeometry x="744.5" y="450" width="49" height="30" as="geometry" />
        </mxCell>
        <mxCell id="jMCXAbODcjZnHYOOHZwY-11" value="" style="shape=flexArrow;endArrow=classic;html=1;rounded=0;endWidth=41;endSize=16.23;width=30;fillColor=#d5e8d4;strokeColor=#82b366;strokeWidth=2;" parent="1" edge="1">
          <mxGeometry width="50" height="50" relative="1" as="geometry">
            <mxPoint x="279.5" y="879" as="sourcePoint" />
            <mxPoint x="489.5" y="879" as="targetPoint" />
          </mxGeometry>
        </mxCell>
        <mxCell id="jMCXAbODcjZnHYOOHZwY-12" value="git merge --squash feature" style="edgeLabel;html=1;align=center;verticalAlign=middle;resizable=0;points=[];fontSize=16;labelBackgroundColor=none;" parent="jMCXAbODcjZnHYOOHZwY-11" vertex="1" connectable="0">
          <mxGeometry x="0.5225" y="2" relative="1" as="geometry">
            <mxPoint x="-62" as="offset" />
          </mxGeometry>
        </mxCell>
        <mxCell id="jMCXAbODcjZnHYOOHZwY-13" value="m1" style="ellipse;whiteSpace=wrap;html=1;aspect=fixed;fillColor=#ffe6cc;strokeColor=#d79b00;strokeWidth=2;" parent="1" vertex="1">
          <mxGeometry x="500" y="859.5" width="40" height="40" as="geometry" />
        </mxCell>
        <mxCell id="jMCXAbODcjZnHYOOHZwY-14" style="edgeStyle=orthogonalEdgeStyle;rounded=0;orthogonalLoop=1;jettySize=auto;html=1;exitX=0;exitY=0.5;exitDx=0;exitDy=0;entryX=1;entryY=0.5;entryDx=0;entryDy=0;" parent="1" source="jMCXAbODcjZnHYOOHZwY-15" target="jMCXAbODcjZnHYOOHZwY-13" edge="1">
          <mxGeometry relative="1" as="geometry" />
        </mxCell>
        <mxCell id="jMCXAbODcjZnHYOOHZwY-15" value="m2" style="ellipse;whiteSpace=wrap;html=1;aspect=fixed;fillColor=#ffe6cc;strokeColor=#d79b00;strokeWidth=2;" parent="1" vertex="1">
          <mxGeometry x="584" y="859.5" width="40" height="40" as="geometry" />
        </mxCell>
        <mxCell id="jMCXAbODcjZnHYOOHZwY-16" style="edgeStyle=orthogonalEdgeStyle;rounded=0;orthogonalLoop=1;jettySize=auto;html=1;exitX=0;exitY=0.5;exitDx=0;exitDy=0;entryX=1;entryY=0.5;entryDx=0;entryDy=0;" parent="1" source="jMCXAbODcjZnHYOOHZwY-17" target="jMCXAbODcjZnHYOOHZwY-15" edge="1">
          <mxGeometry relative="1" as="geometry" />
        </mxCell>
        <mxCell id="jMCXAbODcjZnHYOOHZwY-17" value="m3" style="ellipse;whiteSpace=wrap;html=1;aspect=fixed;fillColor=#ffe6cc;strokeColor=#d79b00;strokeWidth=2;" parent="1" vertex="1">
          <mxGeometry x="665" y="859.5" width="40" height="40" as="geometry" />
        </mxCell>
        <mxCell id="jMCXAbODcjZnHYOOHZwY-18" style="edgeStyle=orthogonalEdgeStyle;rounded=0;orthogonalLoop=1;jettySize=auto;html=1;exitX=0;exitY=0.5;exitDx=0;exitDy=0;entryX=0.5;entryY=1;entryDx=0;entryDy=0;" parent="1" source="jMCXAbODcjZnHYOOHZwY-19" target="jMCXAbODcjZnHYOOHZwY-15" edge="1">
          <mxGeometry relative="1" as="geometry" />
        </mxCell>
        <mxCell id="jMCXAbODcjZnHYOOHZwY-19" value="f1" style="ellipse;whiteSpace=wrap;html=1;aspect=fixed;fillColor=#dae8fc;strokeColor=#6c8ebf;strokeWidth=2;" parent="1" vertex="1">
          <mxGeometry x="625" y="939.5" width="40" height="40" as="geometry" />
        </mxCell>
        <mxCell id="jMCXAbODcjZnHYOOHZwY-20" style="edgeStyle=orthogonalEdgeStyle;rounded=0;orthogonalLoop=1;jettySize=auto;html=1;exitX=0;exitY=0.5;exitDx=0;exitDy=0;entryX=1;entryY=0.5;entryDx=0;entryDy=0;" parent="1" source="jMCXAbODcjZnHYOOHZwY-21" target="jMCXAbODcjZnHYOOHZwY-19" edge="1">
          <mxGeometry relative="1" as="geometry" />
        </mxCell>
        <mxCell id="jMCXAbODcjZnHYOOHZwY-21" value="f2" style="ellipse;whiteSpace=wrap;html=1;aspect=fixed;fillColor=#dae8fc;strokeColor=#6c8ebf;strokeWidth=2;" parent="1" vertex="1">
          <mxGeometry x="696" y="939.5" width="40" height="40" as="geometry" />
        </mxCell>
        <mxCell id="jMCXAbODcjZnHYOOHZwY-23" style="edgeStyle=orthogonalEdgeStyle;rounded=0;orthogonalLoop=1;jettySize=auto;html=1;exitX=0;exitY=0.5;exitDx=0;exitDy=0;entryX=1;entryY=0.5;entryDx=0;entryDy=0;" parent="1" source="jMCXAbODcjZnHYOOHZwY-24" target="jMCXAbODcjZnHYOOHZwY-17" edge="1">
          <mxGeometry relative="1" as="geometry" />
        </mxCell>
        <mxCell id="jMCXAbODcjZnHYOOHZwY-24" value="merge" style="ellipse;whiteSpace=wrap;html=1;aspect=fixed;strokeColor=#d79b00;fillColor=#ffe6cc;strokeWidth=2;" parent="1" vertex="1">
          <mxGeometry x="749" y="859.5" width="40" height="40" as="geometry" />
        </mxCell>
        <mxCell id="jMCXAbODcjZnHYOOHZwY-40" value="main" style="shape=offPageConnector;whiteSpace=wrap;html=1;rotation=0;size=0.23728813559322035;labelPosition=center;verticalLabelPosition=middle;align=center;verticalAlign=middle;textDirection=ltr;horizontal=0;strokeWidth=2;fontStyle=1;fillColor=#ffe6cc;strokeColor=#d79b00;spacingBottom=2;" parent="1" vertex="1">
          <mxGeometry x="754" y="810.5" width="30" height="49" as="geometry" />
        </mxCell>
        <mxCell id="jMCXAbODcjZnHYOOHZwY-41" value="HEAD" style="shape=display;whiteSpace=wrap;html=1;fillColor=#e51400;fontColor=#ffffff;strokeColor=#B20000;fontStyle=1;spacingLeft=4;rotation=-90;" parent="1" vertex="1">
          <mxGeometry x="744.5" y="770" width="49" height="30" as="geometry" />
        </mxCell>
        <mxCell id="jMCXAbODcjZnHYOOHZwY-44" value="m1" style="ellipse;whiteSpace=wrap;html=1;aspect=fixed;fillColor=#ffe6cc;strokeColor=#d79b00;strokeWidth=2;" parent="1" vertex="1">
          <mxGeometry x="40" y="199.5" width="40" height="40" as="geometry" />
        </mxCell>
        <mxCell id="jMCXAbODcjZnHYOOHZwY-45" style="edgeStyle=orthogonalEdgeStyle;rounded=0;orthogonalLoop=1;jettySize=auto;html=1;exitX=0;exitY=0.5;exitDx=0;exitDy=0;entryX=1;entryY=0.5;entryDx=0;entryDy=0;" parent="1" source="jMCXAbODcjZnHYOOHZwY-46" target="jMCXAbODcjZnHYOOHZwY-44" edge="1">
          <mxGeometry relative="1" as="geometry" />
        </mxCell>
        <mxCell id="jMCXAbODcjZnHYOOHZwY-46" value="m2" style="ellipse;whiteSpace=wrap;html=1;aspect=fixed;fillColor=#ffe6cc;strokeColor=#d79b00;strokeWidth=2;" parent="1" vertex="1">
          <mxGeometry x="130" y="199.5" width="40" height="40" as="geometry" />
        </mxCell>
        <mxCell id="jMCXAbODcjZnHYOOHZwY-47" style="edgeStyle=orthogonalEdgeStyle;rounded=0;orthogonalLoop=1;jettySize=auto;html=1;exitX=0;exitY=0.5;exitDx=0;exitDy=0;entryX=1;entryY=0.5;entryDx=0;entryDy=0;" parent="1" source="jMCXAbODcjZnHYOOHZwY-48" target="jMCXAbODcjZnHYOOHZwY-46" edge="1">
          <mxGeometry relative="1" as="geometry" />
        </mxCell>
        <mxCell id="jMCXAbODcjZnHYOOHZwY-48" value="m3" style="ellipse;whiteSpace=wrap;html=1;aspect=fixed;fillColor=#ffe6cc;strokeColor=#d79b00;strokeWidth=2;" parent="1" vertex="1">
          <mxGeometry x="220" y="199.5" width="40" height="40" as="geometry" />
        </mxCell>
        <mxCell id="jMCXAbODcjZnHYOOHZwY-59" style="edgeStyle=orthogonalEdgeStyle;rounded=0;orthogonalLoop=1;jettySize=auto;html=1;exitX=0.5;exitY=0;exitDx=0;exitDy=0;entryX=0.5;entryY=1;entryDx=0;entryDy=0;" parent="1" source="jMCXAbODcjZnHYOOHZwY-50" target="jMCXAbODcjZnHYOOHZwY-48" edge="1">
          <mxGeometry relative="1" as="geometry" />
        </mxCell>
        <mxCell id="jMCXAbODcjZnHYOOHZwY-50" value="f1" style="ellipse;whiteSpace=wrap;html=1;aspect=fixed;fillColor=#dae8fc;strokeColor=#6c8ebf;strokeWidth=2;" parent="1" vertex="1">
          <mxGeometry x="220" y="270" width="40" height="40" as="geometry" />
        </mxCell>
        <mxCell id="jMCXAbODcjZnHYOOHZwY-51" style="edgeStyle=orthogonalEdgeStyle;rounded=0;orthogonalLoop=1;jettySize=auto;html=1;exitX=0;exitY=0.5;exitDx=0;exitDy=0;entryX=1;entryY=0.5;entryDx=0;entryDy=0;" parent="1" source="jMCXAbODcjZnHYOOHZwY-52" target="jMCXAbODcjZnHYOOHZwY-50" edge="1">
          <mxGeometry relative="1" as="geometry" />
        </mxCell>
        <mxCell id="jMCXAbODcjZnHYOOHZwY-52" value="f2" style="ellipse;whiteSpace=wrap;html=1;aspect=fixed;fillColor=#dae8fc;strokeColor=#6c8ebf;strokeWidth=2;" parent="1" vertex="1">
          <mxGeometry x="295" y="270" width="40" height="40" as="geometry" />
        </mxCell>
        <mxCell id="jMCXAbODcjZnHYOOHZwY-53" value="main" style="shape=offPageConnector;whiteSpace=wrap;html=1;rotation=0;size=0.23728813559322035;labelPosition=center;verticalLabelPosition=middle;align=center;verticalAlign=middle;textDirection=ltr;horizontal=0;strokeWidth=2;fontStyle=1;fillColor=#ffe6cc;strokeColor=#d79b00;spacingBottom=2;" parent="1" vertex="1">
          <mxGeometry x="225" y="150.5" width="30" height="49" as="geometry" />
        </mxCell>
        <mxCell id="jMCXAbODcjZnHYOOHZwY-54" value="HEAD" style="shape=display;whiteSpace=wrap;html=1;fillColor=#e51400;fontColor=#ffffff;strokeColor=#B20000;fontStyle=1;spacingLeft=4;rotation=-90;" parent="1" vertex="1">
          <mxGeometry x="215.5" y="110" width="49" height="30" as="geometry" />
        </mxCell>
        <mxCell id="jMCXAbODcjZnHYOOHZwY-56" value="" style="shape=flexArrow;endArrow=classic;html=1;rounded=0;endWidth=31;endSize=15.53;width=30;fillColor=#d5e8d4;strokeColor=#82b366;strokeWidth=2;" parent="1" edge="1">
          <mxGeometry width="50" height="50" relative="1" as="geometry">
            <mxPoint x="290.5" y="219" as="sourcePoint" />
            <mxPoint x="441" y="220" as="targetPoint" />
          </mxGeometry>
        </mxCell>
        <mxCell id="jMCXAbODcjZnHYOOHZwY-57" value="git merge feature" style="edgeLabel;html=1;align=center;verticalAlign=middle;resizable=0;points=[];fontSize=16;labelBackgroundColor=none;" parent="jMCXAbODcjZnHYOOHZwY-56" vertex="1" connectable="0">
          <mxGeometry x="0.5225" y="2" relative="1" as="geometry">
            <mxPoint x="-48" as="offset" />
          </mxGeometry>
        </mxCell>
        <mxCell id="jMCXAbODcjZnHYOOHZwY-60" value="m1" style="ellipse;whiteSpace=wrap;html=1;aspect=fixed;fillColor=#ffe6cc;strokeColor=#d79b00;strokeWidth=2;" parent="1" vertex="1">
          <mxGeometry x="469" y="199.5" width="40" height="40" as="geometry" />
        </mxCell>
        <mxCell id="jMCXAbODcjZnHYOOHZwY-61" style="edgeStyle=orthogonalEdgeStyle;rounded=0;orthogonalLoop=1;jettySize=auto;html=1;exitX=0;exitY=0.5;exitDx=0;exitDy=0;entryX=1;entryY=0.5;entryDx=0;entryDy=0;" parent="1" source="jMCXAbODcjZnHYOOHZwY-62" target="jMCXAbODcjZnHYOOHZwY-60" edge="1">
          <mxGeometry relative="1" as="geometry" />
        </mxCell>
        <mxCell id="jMCXAbODcjZnHYOOHZwY-62" value="m2" style="ellipse;whiteSpace=wrap;html=1;aspect=fixed;fillColor=#ffe6cc;strokeColor=#d79b00;strokeWidth=2;" parent="1" vertex="1">
          <mxGeometry x="540" y="199.5" width="40" height="40" as="geometry" />
        </mxCell>
        <mxCell id="jMCXAbODcjZnHYOOHZwY-63" style="edgeStyle=orthogonalEdgeStyle;rounded=0;orthogonalLoop=1;jettySize=auto;html=1;exitX=0;exitY=0.5;exitDx=0;exitDy=0;entryX=1;entryY=0.5;entryDx=0;entryDy=0;" parent="1" source="jMCXAbODcjZnHYOOHZwY-64" target="jMCXAbODcjZnHYOOHZwY-62" edge="1">
          <mxGeometry relative="1" as="geometry" />
        </mxCell>
        <mxCell id="jMCXAbODcjZnHYOOHZwY-64" value="m3" style="ellipse;whiteSpace=wrap;html=1;aspect=fixed;fillColor=#ffe6cc;strokeColor=#d79b00;strokeWidth=2;" parent="1" vertex="1">
          <mxGeometry x="610" y="199.5" width="40" height="40" as="geometry" />
        </mxCell>
        <mxCell id="jMCXAbODcjZnHYOOHZwY-74" style="edgeStyle=orthogonalEdgeStyle;rounded=0;orthogonalLoop=1;jettySize=auto;html=1;exitX=0;exitY=0.5;exitDx=0;exitDy=0;entryX=1;entryY=0.5;entryDx=0;entryDy=0;" parent="1" source="jMCXAbODcjZnHYOOHZwY-66" target="jMCXAbODcjZnHYOOHZwY-64" edge="1">
          <mxGeometry relative="1" as="geometry" />
        </mxCell>
        <mxCell id="jMCXAbODcjZnHYOOHZwY-66" value="f1" style="ellipse;whiteSpace=wrap;html=1;aspect=fixed;fillColor=#ffe6cc;strokeColor=#d79b00;strokeWidth=2;" parent="1" vertex="1">
          <mxGeometry x="680" y="199.5" width="40" height="40" as="geometry" />
        </mxCell>
        <mxCell id="jMCXAbODcjZnHYOOHZwY-75" style="edgeStyle=orthogonalEdgeStyle;rounded=0;orthogonalLoop=1;jettySize=auto;html=1;exitX=0;exitY=0.5;exitDx=0;exitDy=0;entryX=1;entryY=0.5;entryDx=0;entryDy=0;" parent="1" source="jMCXAbODcjZnHYOOHZwY-68" target="jMCXAbODcjZnHYOOHZwY-66" edge="1">
          <mxGeometry relative="1" as="geometry" />
        </mxCell>
        <mxCell id="jMCXAbODcjZnHYOOHZwY-68" value="f2" style="ellipse;whiteSpace=wrap;html=1;aspect=fixed;fillColor=#ffe6cc;strokeColor=#d79b00;strokeWidth=2;" parent="1" vertex="1">
          <mxGeometry x="749" y="199.5" width="40" height="40" as="geometry" />
        </mxCell>
        <mxCell id="jMCXAbODcjZnHYOOHZwY-69" value="main" style="shape=offPageConnector;whiteSpace=wrap;html=1;rotation=0;size=0.23728813559322035;labelPosition=center;verticalLabelPosition=middle;align=center;verticalAlign=middle;textDirection=ltr;horizontal=0;strokeWidth=2;fontStyle=1;fillColor=#ffe6cc;strokeColor=#d79b00;spacingBottom=2;" parent="1" vertex="1">
          <mxGeometry x="754" y="150.5" width="30" height="49" as="geometry" />
        </mxCell>
        <mxCell id="jMCXAbODcjZnHYOOHZwY-70" value="HEAD" style="shape=display;whiteSpace=wrap;html=1;fillColor=#e51400;fontColor=#ffffff;strokeColor=#B20000;fontStyle=1;spacingLeft=4;rotation=-90;" parent="1" vertex="1">
          <mxGeometry x="744.5" y="110" width="49" height="30" as="geometry" />
        </mxCell>
        <mxCell id="1QGm17roGQom9RxWN4Ta-1" value="&lt;font style=&quot;font-size: 16px;&quot;&gt;Fast-forward merge&lt;/font&gt;&lt;div style=&quot;font-size: 16px;&quot;&gt;&lt;font style=&quot;font-size: 16px;&quot;&gt;(no merge commit&lt;/font&gt;&lt;/div&gt;&lt;div style=&quot;font-size: 16px;&quot;&gt;&lt;font style=&quot;font-size: 16px;&quot;&gt;created)&lt;/font&gt;&lt;/div&gt;" style="rounded=0;whiteSpace=wrap;html=1;strokeWidth=1;fillColor=#FCFCFC;fontColor=#333333;strokeColor=#B3B3B3;fillStyle=auto;gradientColor=#E5EBF2;shadow=0;textShadow=0;glass=0;" parent="1" vertex="1">
          <mxGeometry x="290" y="100" width="150" height="75" as="geometry" />
        </mxCell>
        <mxCell id="1QGm17roGQom9RxWN4Ta-4" value="feature" style="shape=offPageConnector;whiteSpace=wrap;html=1;rotation=0;textDirection=vertical-lr;size=0.23728813559322035;spacingLeft=0;spacingTop=4;spacingBottom=0;strokeWidth=2;fontStyle=1;fillColor=#dae8fc;strokeColor=#6c8ebf;flipH=0;flipV=1;spacing=2;" parent="1" vertex="1">
          <mxGeometry x="299.5" y="310" width="30" height="60" as="geometry" />
        </mxCell>
        <mxCell id="1QGm17roGQom9RxWN4Ta-5" value="feature" style="shape=offPageConnector;whiteSpace=wrap;html=1;rotation=0;textDirection=vertical-lr;size=0.23728813559322035;spacingLeft=0;spacingTop=4;spacingBottom=0;strokeWidth=2;fontStyle=1;fillColor=#dae8fc;strokeColor=#6c8ebf;flipH=0;flipV=1;spacing=2;" parent="1" vertex="1">
          <mxGeometry x="754" y="239.5" width="30" height="60" as="geometry" />
        </mxCell>
        <mxCell id="1QGm17roGQom9RxWN4Ta-6" value="feature" style="shape=offPageConnector;whiteSpace=wrap;html=1;rotation=0;textDirection=vertical-lr;size=0.23728813559322035;spacingLeft=0;spacingTop=4;spacingBottom=0;strokeWidth=2;fontStyle=1;fillColor=#dae8fc;strokeColor=#6c8ebf;flipH=0;flipV=1;spacing=2;" parent="1" vertex="1">
          <mxGeometry x="244.5" y="790.25" width="30" height="60" as="geometry" />
        </mxCell>
        <mxCell id="1QGm17roGQom9RxWN4Ta-7" value="feature" style="shape=offPageConnector;whiteSpace=wrap;html=1;rotation=0;textDirection=vertical-lr;size=0.23728813559322035;spacingLeft=0;spacingTop=4;spacingBottom=0;strokeWidth=2;fontStyle=1;fillColor=#dae8fc;strokeColor=#6c8ebf;flipH=0;flipV=1;spacing=2;" parent="1" vertex="1">
          <mxGeometry x="701" y="659.5" width="30" height="60" as="geometry" />
        </mxCell>
        <mxCell id="1QGm17roGQom9RxWN4Ta-9" value="feature" style="shape=offPageConnector;whiteSpace=wrap;html=1;rotation=0;textDirection=vertical-lr;size=0.23728813559322035;spacingLeft=0;spacingTop=4;spacingBottom=0;strokeWidth=2;fontStyle=1;fillColor=#dae8fc;strokeColor=#6c8ebf;flipH=0;flipV=1;spacing=2;" parent="1" vertex="1">
          <mxGeometry x="701" y="979.5" width="30" height="60" as="geometry" />
        </mxCell>
        <mxCell id="1QGm17roGQom9RxWN4Ta-10" value="If you delete the feature&lt;div&gt;branch,&amp;nbsp;&lt;span style=&quot;background-color: initial;&quot;&gt;Git removes&lt;/span&gt;&lt;/div&gt;&lt;div&gt;&lt;span style=&quot;background-color: initial;&quot;&gt;f1 and f2&lt;/span&gt;&lt;/div&gt;" style="text;html=1;align=center;verticalAlign=middle;resizable=0;points=[];autosize=1;strokeColor=none;fillColor=none;fontSize=14;" parent="1" vertex="1">
          <mxGeometry x="529" y="984" width="170" height="60" as="geometry" />
        </mxCell>
      </root>
    </mxGraphModel>
  </diagram>
</mxfile>
